# Blender v3.1.2 OBJ File: ''
# www.blender.org
mtllib card.mtl
o Card_Circle
v 1.900000 0.000000 -0.000000
v 0.076648 0.000109 -0.009184
v 0.058230 0.000100 -0.002505
v 0.041317 0.000089 0.007820
v 0.026549 0.000078 0.021370
v 0.014487 0.000067 0.037607
v 0.005596 0.000057 0.055905
v 0.000217 0.000049 0.075567
v -0.000000 0.000000 2.900000
v 0.001921 0.000000 2.919509
v 0.007612 0.000000 2.938268
v 0.016853 0.000000 2.955557
v 0.029289 0.000000 2.970711
v 0.044443 0.000000 2.983147
v 0.061732 0.000000 2.992388
v 0.080491 0.000000 2.998079
v 1.900000 0.000000 3.000000
v 1.919509 0.000000 2.998079
v 1.938268 0.000000 2.992388
v 1.955557 0.000000 2.983147
v 1.970711 0.000000 2.970711
v 1.983147 0.000000 2.955557
v 1.992388 0.000000 2.938268
v 1.998078 0.000000 2.919509
v 2.000000 0.000000 2.900000
v 1.998078 0.000000 0.080491
v 1.992388 0.000000 0.061732
v 1.983147 0.000000 0.044443
v 1.970711 0.000000 0.029289
v 1.955557 0.000000 0.016853
v 1.938268 0.000000 0.007612
v 1.919509 0.000000 0.001921
v 0.076634 0.010110 -0.009224
v 1.900000 0.010000 -0.000000
v 0.058217 0.010100 -0.002542
v 0.041305 0.010089 0.007787
v 0.026538 0.010078 0.021339
v 0.014478 0.010068 0.037580
v 0.005587 0.010058 0.055881
v 0.000210 0.010049 0.075545
v -0.000000 0.010000 2.900000
v 0.001921 0.010000 2.919509
v 0.007612 0.010000 2.938268
v 0.016853 0.010000 2.955557
v 0.029289 0.010000 2.970711
v 0.044443 0.010000 2.983147
v 0.061732 0.010000 2.992388
v 0.080491 0.010000 2.998079
v 1.900000 0.010000 3.000000
v 1.919509 0.010000 2.998079
v 1.938268 0.010000 2.992388
v 1.955557 0.010000 2.983147
v 1.970711 0.010000 2.970711
v 1.983147 0.010000 2.955557
v 1.992388 0.010000 2.938268
v 1.998078 0.010000 2.919509
v 2.000000 0.010000 2.900000
v 1.998078 0.010000 0.080491
v 1.992388 0.010000 0.061732
v 1.983147 0.010000 0.044443
v 1.970711 0.010000 0.029289
v 1.955557 0.010000 0.016853
v 1.938268 0.010000 0.007612
v 1.919509 0.010000 0.001921
vt 0.000000 0.000000
vt 0.000000 0.000000
vt 0.000000 0.000000
vt 0.000000 0.000000
vt 0.000000 0.000000
vt 0.000000 0.000000
vt 0.000000 0.000000
vt 0.000000 0.000000
vt 0.000000 0.000000
vt 0.000000 0.000000
vt 0.000000 0.000000
vt 0.000000 0.000000
vt 0.000000 0.000000
vt 0.000000 0.000000
vt 0.000000 0.000000
vt 0.000000 0.000000
vt 0.000000 0.000000
vt 0.000000 0.000000
vt 0.000000 0.000000
vt 0.000000 0.000000
vt 0.000000 0.000000
vt 0.000000 0.000000
vt 0.000000 0.000000
vt 0.000000 0.000000
vt 0.000000 0.000000
vt 0.000000 0.000000
vt 0.000000 0.000000
vt 0.000000 0.000000
vt 0.000000 0.000000
vt 0.000000 0.000000
vt 0.000000 0.000000
vt 0.000000 0.000000
vt 0.000000 0.000000
vt 0.000000 0.000000
vt 0.000000 0.000000
vt 0.000000 0.000000
vt 0.000000 0.000000
vt 0.000000 0.000000
vt 0.000000 0.000000
vt 0.000000 0.000000
vt 0.000000 0.000000
vt 0.000000 0.000000
vt 0.000000 0.000000
vt 0.000000 0.000000
vt 0.000000 0.000000
vt 0.000000 0.000000
vt 0.000000 0.000000
vt 0.000000 0.000000
vt 0.000000 0.000000
vt 0.000000 0.000000
vt 0.000000 0.000000
vt 0.000000 0.000000
vt 0.000000 0.000000
vt 0.000000 0.000000
vt 0.000000 0.000000
vt 0.000000 0.000000
vt 0.000000 0.000000
vt 0.000000 0.000000
vt 0.000000 0.000000
vt 0.000000 0.000000
vt 0.000000 0.000000
vt 0.000000 0.000000
vt 0.000000 0.000000
vt 0.000000 0.000000
vn -0.0000 -1.0000 -0.0000
vn 0.0000 1.0000 0.0000
vn 0.9952 0.0000 0.0980
vn -0.8819 0.0000 0.4714
vn 1.0000 0.0000 -0.0007
vn -0.7730 0.0000 0.6344
vn 0.9569 0.0000 -0.2903
vn -0.6344 0.0000 0.7730
vn 0.8819 0.0000 -0.4714
vn -0.4714 0.0000 0.8819
vn 0.0050 -0.0020 -1.0000
vn 0.7730 0.0000 -0.6344
vn -0.2903 0.0000 0.9569
vn -0.3410 -0.0041 -0.9401
vn 0.6344 0.0000 -0.7730
vn -0.0011 0.0000 1.0000
vn -0.5211 -0.0037 -0.8535
vn 0.4714 0.0000 -0.8819
vn 0.0980 0.0000 0.9952
vn -0.6761 -0.0031 -0.7368
vn 0.2903 0.0000 -0.9569
vn 0.2903 0.0000 0.9569
vn -0.8028 -0.0025 -0.5962
vn 0.0980 0.0000 -0.9952
vn 0.4714 0.0000 0.8819
vn -0.8994 -0.0020 -0.4370
vn 0.6344 0.0000 0.7730
vn -0.9646 -0.0014 -0.2638
vn 0.7730 0.0000 0.6344
vn -1.0000 -0.0004 -0.0001
vn 0.8819 0.0000 0.4714
vn -0.9952 0.0000 0.0980
vn 0.9569 0.0000 0.2903
vn -0.9569 0.0000 0.2903
usemtl None
s off
f 2/1/1 1/2/1 32/3/1 31/4/1 30/5/1 29/6/1 28/7/1 27/8/1 26/9/1 25/10/1 24/11/1 23/12/1 22/13/1 21/14/1 20/15/1 19/16/1 18/17/1 17/18/1 16/19/1 15/20/1 14/21/1 13/22/1 12/23/1 11/24/1 10/25/1 9/26/1 8/27/1 7/28/1 6/29/1 5/30/1 4/31/1 3/32/1
f 33/33/2 35/34/2 36/35/2 37/36/2 38/37/2 39/38/2 40/39/2 41/40/2 42/41/2 43/42/2 44/43/2 45/44/2 46/45/2 47/46/2 48/47/2 49/48/2 50/49/2 51/50/2 52/51/2 53/52/2 54/53/2 55/54/2 56/55/2 57/56/2 58/57/2 59/58/2 60/59/2 61/60/2 62/61/2 63/62/2 64/63/2 34/64/2
f 24/11/3 25/10/3 57/56/3 56/55/3
f 11/24/4 12/23/4 44/43/4 43/42/4
f 25/10/5 26/9/5 58/57/5 57/56/5
f 12/23/6 13/22/6 45/44/6 44/43/6
f 26/9/7 27/8/7 59/58/7 58/57/7
f 13/22/8 14/21/8 46/45/8 45/44/8
f 27/8/9 28/7/9 60/59/9 59/58/9
f 14/21/10 15/20/10 47/46/10 46/45/10
f 1/2/11 2/1/11 33/33/11 34/64/11
f 28/7/12 29/6/12 61/60/12 60/59/12
f 15/20/13 16/19/13 48/47/13 47/46/13
f 2/1/14 3/32/14 35/34/14 33/33/14
f 29/6/15 30/5/15 62/61/15 61/60/15
f 16/19/16 17/18/16 49/48/16 48/47/16
f 3/32/17 4/31/17 36/35/17 35/34/17
f 30/5/18 31/4/18 63/62/18 62/61/18
f 17/18/19 18/17/19 50/49/19 49/48/19
f 4/31/20 5/30/20 37/36/20 36/35/20
f 31/4/21 32/3/21 64/63/21 63/62/21
f 18/17/22 19/16/22 51/50/22 50/49/22
f 5/30/23 6/29/23 38/37/23 37/36/23
f 32/3/24 1/2/24 34/64/24 64/63/24
f 19/16/25 20/15/25 52/51/25 51/50/25
f 6/29/26 7/28/26 39/38/26 38/37/26
f 20/15/27 21/14/27 53/52/27 52/51/27
f 7/28/28 8/27/28 40/39/28 39/38/28
f 21/14/29 22/13/29 54/53/29 53/52/29
f 8/27/30 9/26/30 41/40/30 40/39/30
f 22/13/31 23/12/31 55/54/31 54/53/31
f 9/26/32 10/25/32 42/41/32 41/40/32
f 23/12/33 24/11/33 56/55/33 55/54/33
f 10/25/34 11/24/34 43/42/34 42/41/34
